<svg width="156" height="156" viewBox="0 0 156 156" fill="none" xmlns="http://www.w3.org/2000/svg">
<path fill-rule="evenodd" clip-rule="evenodd" d="M95.0642 77.0503C118.428 65.3801 136.739 47.4776 146.661 26.7034C147.671 24.5954 148.59 22.8541 148.682 22.8541C148.988 22.793 151.346 27.5894 152.417 30.4611C154.898 37.1211 156 43.6283 156 51.6325C156 68.8934 150.09 86.6737 138.699 103.782C119.928 131.949 90.1649 151.685 60.6463 155.565C56.145 156.145 47.0199 156.145 42.6717 155.565C31.9238 154.159 23.3193 150.402 15.4803 143.681C14.1024 142.52 13 141.389 13 141.175C13 140.992 13.3675 139.74 13.7961 138.426C18.4812 124.403 29.6884 110.656 44.4478 100.788C54.124 94.3113 61.2281 90.798 76.3854 85.024C85.6636 81.4801 89.1238 80.0137 95.0642 77.0503ZM23.8272 43.4617C42.9307 19.7498 69.1902 3.99289 95.4804 0.413147C99.5345 -0.137573 109.639 -0.137573 113.693 0.413147C125.364 1.94295 133.871 5.88983 142.809 13.906C143.177 14.2119 143.055 14.7627 142.072 17.3022C135.039 35.5068 120.174 52.457 101.07 64.0835C93.0233 68.9788 86.6965 71.9466 74.4113 76.6278C59.6077 82.2575 51.6531 86.082 42.47 91.9564C26.6221 102.145 13.8149 116.494 7.73371 130.844C6.87375 132.924 6.65876 132.772 4.81598 128.58C-5.87209 104.287 1.56042 71.0899 23.8272 43.4617Z" fill="white"/>
</svg>
