<svg width="180" height="202" viewBox="0 0 180 202" fill="none" xmlns="http://www.w3.org/2000/svg">
<path fill-rule="evenodd" clip-rule="evenodd" d="M90.524 80.058C81.2124 49.4795 63.1999 23.6317 39.889 7.24686C37.5244 5.57974 35.5889 4.10178 35.6084 3.9914C35.5988 3.61039 41.9695 1.80857 45.7115 1.13819C54.3887 -0.410228 62.5859 -0.335968 72.3805 1.38446C93.5023 5.09451 114.003 16.0165 132.515 33.3793C162.991 61.9852 180.811 101.986 179.28 138.285C179.033 143.817 177.093 154.781 175.458 159.88C171.452 172.491 165.024 182.021 155.132 189.994C153.419 191.4 151.801 192.482 151.539 192.436C151.315 192.396 149.86 191.686 148.344 190.888C132.181 182.245 117.742 165.826 108.806 145.972C102.939 132.955 100.15 123.665 96.3086 104.213C93.9453 92.3044 92.8868 87.832 90.524 80.058ZM37.7913 158.747C12.9724 130.722 -0.635063 95.8023 0.596151 63.4505C0.787563 58.462 2.9366 46.3221 4.46963 41.5692C8.81514 27.8747 15.4319 18.498 27.0966 9.47525C27.5477 9.09792 28.1923 9.36334 31.0765 11.0874C51.7543 23.4322 69.2386 44.918 79.3371 70.3569C83.5884 81.0719 85.8577 89.3082 88.9467 105.069C92.6553 124.059 95.6219 134.435 100.824 146.724C109.863 167.944 124.618 186.401 140.802 196.778C143.154 198.256 142.922 198.481 137.424 199.799C105.561 207.442 66.7074 191.41 37.7913 158.747Z" fill="white"/>
</svg>
