<svg width="100" height="100" viewBox="0 0 100 100" fill="none" xmlns="http://www.w3.org/2000/svg">
<path fill-rule="evenodd" clip-rule="evenodd" d="M85.151 27.8478C73.2458 12.6544 56.8811 2.55817 40.4971 0.264459C37.9706 -0.0884198 31.6735 -0.0884198 29.1471 0.264459C21.8738 1.24468 16.572 3.77365 11.0022 8.91C10.7726 9.10604 10.8491 9.45892 11.4616 11.0861C15.8447 22.7507 25.1085 33.6115 37.0136 41.0612C42.0283 44.1979 45.9712 46.0995 53.6272 49.099C62.8528 52.7062 67.8101 55.1568 73.5329 58.9208C83.4092 65.4491 91.3907 74.6435 95.1804 83.838C95.7163 85.1711 95.8503 85.0731 96.9987 82.3873C103.659 66.8214 99.0276 45.5506 85.151 27.8478ZM37.9771 49.3123C23.4169 41.8198 12.0054 30.3259 5.82256 16.9884C5.19282 15.635 4.62034 14.517 4.56309 14.517C4.37226 14.4778 2.90288 17.5572 2.23498 19.4009C0.689275 23.6768 0.00229274 27.8546 0.00229274 32.9934C0.00229274 44.0754 3.68528 55.4908 10.7841 66.4747C22.4819 84.5588 41.0304 97.2295 59.4262 99.7205C62.2314 100.093 67.9181 100.093 70.6279 99.7205C77.326 98.8183 82.6882 96.4057 87.5734 92.0906C88.4322 91.3453 89.1191 90.6196 89.1191 90.4823C89.1191 90.3646 88.8901 89.5604 88.623 88.717C85.7033 79.7141 78.719 70.8878 69.5211 64.5525C63.4909 60.3943 59.0637 58.1387 49.6177 54.4316C43.8356 52.1564 41.6792 51.2149 37.9771 49.3123Z" fill="white"/>
</svg>
