<svg width="124" height="124" viewBox="0 0 124 124" fill="none" xmlns="http://www.w3.org/2000/svg">
<path fill-rule="evenodd" clip-rule="evenodd" d="M105.172 34.5318C90.0759 15.6918 69.3254 3.1724 48.5505 0.328179C45.347 -0.109393 37.3622 -0.109393 34.1586 0.328179C24.9362 1.54366 18.2135 4.67959 11.151 11.0487C10.8598 11.2918 10.9569 11.7294 11.7335 13.7471C17.2912 28.2113 29.0377 41.6788 44.1335 50.9164C50.4921 54.806 55.4917 57.164 65.1995 60.8833C76.8975 65.3563 83.1833 68.395 90.44 73.0624C102.963 81.1575 113.084 92.5587 117.889 103.96C118.569 105.613 118.738 105.491 120.195 102.161C128.64 82.8592 122.767 56.4833 105.172 34.5318ZM48.1521 61.147C29.6898 51.8561 15.2199 37.6037 7.3801 21.065C6.5816 19.3868 5.85569 18.0005 5.78309 18.0005C5.54112 17.9518 3.67795 21.7703 2.83105 24.0565C0.871094 29.3586 0 34.5391 0 40.9114C0 54.6531 4.67003 68.8083 13.6713 82.4283C28.5041 104.853 52.0237 120.565 75.3496 123.653C78.9066 124.116 86.1173 124.116 89.5533 123.653C98.0464 122.535 104.846 119.543 111.04 114.192C112.129 113.268 113 112.368 113 112.198C113 112.052 112.71 111.055 112.371 110.009C108.669 98.8454 99.8128 87.9007 88.1498 80.0448C80.5036 74.8886 74.8899 72.0917 62.9123 67.4949C55.5806 64.6736 52.8464 63.5061 48.1521 61.147Z" fill="white"/>
</svg>
