<svg width="247" height="204" viewBox="0 0 247 204" fill="none" xmlns="http://www.w3.org/2000/svg">
<ellipse cx="111.511" cy="53.0154" rx="111.511" ry="53.0154" transform="matrix(0.865942 0.500145 -0.499855 0.866109 53 0.02948)" fill="#43FC43"/>
<path d="M74.6476 63.3953C74.0311 64.4635 73.6627 65.5018 73.5426 66.5102C73.4391 67.4898 73.4639 68.4472 73.6169 69.3824C73.7987 70.3343 74.0261 71.274 74.299 72.2015C74.572 73.1291 74.7766 74.0749 74.9129 75.039C75.0948 75.9909 75.1173 76.9855 74.9805 78.0228C74.8604 79.0312 74.4671 80.1128 73.8006 81.2676L71.5262 85.2084C70.9764 86.1611 70.3511 86.8778 69.6504 87.3585C68.9496 87.8391 68.2084 88.1231 67.4267 88.2105C66.645 88.298 65.829 88.2116 64.9785 87.9513C64.1403 87.7366 63.2965 87.3648 62.4472 86.8358C60.732 85.8066 59.6003 84.6333 59.0521 83.3158C58.5039 81.9984 58.7796 80.3869 59.8793 78.4815L62.4786 73.9777L66.5918 76.3534L64.8423 79.3848C64.6257 79.7601 64.4319 80.1293 64.2608 80.4924C64.1064 80.8267 63.9975 81.1487 63.9341 81.4586C63.8996 81.7851 63.9417 82.0789 64.0605 82.3399C64.1792 82.601 64.3974 82.8232 64.7149 83.0066C65.0324 83.19 65.3338 83.2678 65.6192 83.2402C65.9212 83.1837 66.1905 83.0505 66.427 82.8407C66.6925 82.6475 66.9312 82.4005 67.1434 82.0996C67.3722 81.7698 67.5866 81.4317 67.7865 81.0853L68.5363 79.7861C69.1694 78.689 69.5211 77.6796 69.5913 76.7578C69.707 75.8238 69.6861 74.9263 69.5286 74.0655C69.3878 73.1758 69.1787 72.3044 68.9013 71.4513C68.6695 70.586 68.5081 69.6652 68.4173 68.6889C68.3432 67.6838 68.4078 66.6048 68.6113 65.452C68.8436 64.3159 69.368 63.0405 70.1844 61.6259L72.3088 57.9449C73.4085 56.0395 74.6884 54.9888 76.1485 54.7928C77.6253 54.5679 79.213 54.9845 80.9116 56.0425C82.6268 57.0717 83.7585 58.245 84.3067 59.5624C84.8837 60.8966 84.6224 62.5164 83.5228 64.4218L80.5736 69.5318L76.4171 67.1312L78.5165 63.4935C78.9497 62.7429 79.2297 62.0577 79.3564 61.438C79.5286 60.8061 79.2828 60.2984 78.6189 59.915C77.955 59.5316 77.3782 59.5641 76.8884 60.0126C76.4276 60.4778 75.9888 61.0712 75.5723 61.793L74.6476 63.3953ZM82.5955 80.5155L75.0727 93.5505L70.743 91.0497L88.2379 60.7359L94.3861 64.287C96.1179 65.2872 97.1858 66.4044 97.5897 67.6385C97.9936 68.8726 97.8206 70.1393 97.0708 71.4384L91.2158 81.6835C90.7826 82.4342 90.2945 82.9799 89.7515 83.3206C89.2251 83.6325 88.6993 83.81 88.1741 83.8531C87.6489 83.8962 87.1448 83.836 86.6619 83.6725C86.1789 83.5091 85.7643 83.3273 85.4179 83.1273C85.0426 82.9105 84.6696 82.6566 84.2988 82.3655C83.9736 82.0621 83.6855 81.761 83.4347 81.4622C83.1383 81.1755 82.8585 80.8599 82.5955 80.5155ZM90.2433 67.2641L84.4949 77.2243C84.9845 77.7765 85.4107 78.1382 85.7738 78.3094C86.1823 78.4684 86.5232 78.5113 86.7964 78.4381C87.115 78.3527 87.3699 78.2112 87.5609 78.0136C87.7686 77.7871 87.9308 77.5728 88.0474 77.3707L91.7713 70.9182C92.3378 69.9366 92.5273 69.1414 92.3398 68.5327C92.1812 67.9407 91.4823 67.5178 90.2433 67.2641ZM102.149 68.7705L106.478 71.2712L88.9835 101.585L84.6538 99.0843L102.149 68.7705ZM108.605 78.3892L101.279 72.0788L102.582 69.0206L112.54 74.7722L108.605 78.3892ZM100.716 90.0578L93.7456 86.0317L96.2948 81.6145L103.266 85.6407L100.716 90.0578ZM85.0868 99.3344L87.0827 96.6763L96.2089 99.8687L95.0451 105.086L85.0868 99.3344ZM108.321 101.148L112.478 103.549L110.803 106.45C110.103 107.663 109.39 108.598 108.664 109.257C107.983 109.903 107.279 110.323 106.55 110.519C105.838 110.685 105.086 110.655 104.293 110.428C103.53 110.217 102.715 109.862 101.849 109.362C100.983 108.862 100.231 108.331 99.5924 107.77C98.9541 107.209 98.5001 106.562 98.2305 105.829C97.9897 105.112 97.9499 104.281 98.1111 103.335C98.3179 102.376 98.7878 101.262 99.5209 99.9917L110.718 80.5908C111.817 78.6854 113.116 77.5686 114.614 77.2404C116.158 76.9001 117.81 77.2384 119.57 78.2553C121.331 79.2723 122.436 80.5261 122.884 82.0168C123.378 83.4953 123.075 85.1873 121.975 87.0927L119.026 92.2027L114.869 89.802L117.219 85.7313C117.652 84.9807 117.932 84.2955 118.058 83.6758C118.231 83.044 117.985 82.5363 117.321 82.1528C116.657 81.7694 116.08 81.8019 115.591 82.2504C115.13 82.7156 114.691 83.3091 114.274 84.0308L104.277 101.353C103.744 102.277 103.389 103.092 103.212 103.798C103.036 104.505 103.279 105.049 103.943 105.433C104.607 105.816 105.186 105.747 105.68 105.224C106.175 104.701 106.688 103.977 107.221 103.054L108.321 101.148ZM127.349 83.3255L131.679 85.8262L114.159 116.183L109.829 113.683L127.349 83.3255ZM127.349 83.3255L131.246 85.5761L113.726 115.933L109.829 113.683L127.349 83.3255ZM127.656 123.921L123.326 121.42L136.915 95.375L136.568 95.1749L120.685 119.895L116.355 117.394L135.972 88.3058L143.246 92.5071L127.656 123.921ZM127.747 118.662L121.382 114.986L123.932 110.569L130.296 114.245L127.747 118.662ZM151.636 97.353L134.141 127.667L129.811 125.166L147.306 94.8523L151.636 97.353ZM129.811 125.166L131.461 122.308L140.933 125.7L139.77 130.918L129.811 125.166ZM158.553 101.348L162.883 103.849L145.363 134.206L141.033 131.705L158.553 101.348ZM158.553 101.348L162.45 103.599L144.93 133.956L141.033 131.705L158.553 101.348ZM172.637 115.372L169.899 113.214L154.704 139.543L150.374 137.043L165.595 110.67L162.289 109.395L164.838 104.978L175.186 110.955L172.637 115.372ZM171.27 135.601L183.87 115.97L188.632 118.721L175.254 137.901L171.27 135.601ZM169.982 132.431L174.312 134.932L167.439 146.841L163.109 144.34L169.982 132.431ZM176.682 111.819L181.445 114.57L170.751 135.3L166.768 133L176.682 111.819Z" fill="black"/>
</svg>
