<svg width="239" height="144" viewBox="0 0 239 144" fill="none" xmlns="http://www.w3.org/2000/svg">
<ellipse cx="111.501" cy="53.0199" rx="111.501" ry="53.0199" transform="matrix(0.984796 0.173713 -0.173583 0.984819 19 0.106079)" fill="white"/>
<path d="M73.7105 44.7194L78.6345 45.588L72.559 80.0566L67.6351 79.1881L73.7105 44.7194ZM65.7829 43.321L70.7068 44.1896L64.6314 78.6582L59.7075 77.7897L65.7829 43.321ZM77.2481 50.5729L67.8925 48.9226L68.7865 43.8508L78.1421 45.5011L77.2481 50.5729ZM83.0641 66.6273L80.4517 81.4489L75.5277 80.5803L81.6031 46.1116L88.5951 47.345C90.5647 47.6924 91.9503 48.3768 92.7518 49.3983C93.5533 50.4197 93.8239 51.669 93.5636 53.1463L91.5645 64.7758C91.4141 65.6293 91.142 66.3091 90.7481 66.815C90.3601 67.2881 89.9267 67.6348 89.4479 67.8549C88.9691 68.0751 88.4748 68.191 87.965 68.2026C87.4553 68.2143 87.0034 68.1853 86.6095 68.1158C86.1828 68.0406 85.7454 67.9296 85.2974 67.7828C84.888 67.6091 84.5143 67.4247 84.1764 67.2297C83.7998 67.0617 83.4291 66.8609 83.0641 66.6273ZM85.7199 51.5596L83.7237 62.885C84.3725 63.2364 84.8968 63.4304 85.2965 63.4671C85.7348 63.4767 86.0698 63.4004 86.3015 63.2382C86.5718 63.0489 86.7629 62.8288 86.8749 62.5777C86.9926 62.2939 87.0717 62.037 87.1122 61.8073L88.4054 54.4704C88.6021 53.3542 88.5083 52.5422 88.124 52.0344C87.7724 51.5324 86.9711 51.3741 85.7199 51.5596ZM104.107 60.2357L103.763 60.1749L96.2805 84.1902L96.2719 84.2395L91.3479 83.3709L97.4233 48.9022L102.347 49.7708L97.5819 74.2146L97.9266 74.2754L105.302 50.2919L105.351 50.3006L110.275 51.1692L104.199 85.6379L99.2755 84.7693L104.107 60.2357ZM112.329 69.5555L112.505 51.5625L117.724 52.4832L117.378 58.7686L116.862 68.3242L117.108 68.3676L119.791 59.1942L121.565 53.1607L126.784 54.0814L120.798 71.0495L112.329 69.5555ZM120.709 88.5501L115.49 87.6294L115.943 82.1753L116.712 72.0549L115.973 71.9246L113.177 81.7381L111.649 86.9519L106.43 86.0312L112.381 69.2601L120.85 70.754L120.709 88.5501ZM136.282 84.4936C136.021 85.9708 135.646 87.14 135.156 88.0013C134.704 88.8355 134.156 89.4496 133.511 89.8436C132.866 90.2376 132.135 90.4471 131.318 90.4723C130.535 90.5032 129.667 90.4348 128.715 90.2668C127.73 90.0931 126.842 89.8518 126.05 89.5429C125.291 89.2398 124.659 88.7899 124.155 88.1933C123.684 87.6025 123.379 86.8378 123.24 85.8994C123.106 84.9281 123.17 83.7038 123.43 82.2266L127.301 60.2651C127.683 58.0985 128.541 56.5913 129.875 55.7435C131.215 54.8629 132.886 54.5992 134.888 54.9524C136.891 55.3056 138.355 56.1223 139.28 57.4025C140.211 58.6498 140.485 60.3568 140.103 62.5234L136.282 84.4936ZM134.107 59.3841C133.385 59.2567 132.868 59.5039 132.555 60.1257C132.242 60.7475 132.014 61.4687 131.869 62.2894L128.406 81.9366C128.221 82.987 128.149 83.8714 128.192 84.5898C128.268 85.3139 128.683 85.7425 129.438 85.8757C130.193 86.0089 130.713 85.7453 130.999 85.0848C131.284 84.4244 131.52 83.569 131.705 82.5185L135.168 62.8714C135.237 62.4774 135.29 62.0806 135.327 61.6809C135.364 61.2812 135.342 60.922 135.263 60.6034C135.217 60.2906 135.093 60.0318 134.892 59.8272C134.73 59.5955 134.468 59.4478 134.107 59.3841ZM140.402 92.0237L140.567 95.4039L135.545 94.518L136.855 87.0826L138.086 87.2997C138.374 87.012 138.635 86.6856 138.868 86.3207C139.102 85.9557 139.359 85.358 139.641 84.5277C139.929 83.6645 140.271 82.4895 140.669 81.0026C141.066 79.5157 141.573 77.5064 142.188 74.9749C142.587 73.2852 142.944 71.7404 143.259 70.3404C143.573 68.9404 143.865 67.5703 144.136 66.2302C144.438 64.8959 144.731 63.5258 145.012 62.12C145.327 60.72 145.667 59.1723 146.034 57.4769L156.67 59.353L151.332 89.6362L152.612 89.862L151.302 97.2974L146.279 96.4114L147.541 93.2831L140.402 92.0237ZM146.9 88.8545L151.439 63.1014L149.528 62.7135C149.269 63.9879 149.015 65.1446 148.764 66.1835C148.546 67.2282 148.331 68.2565 148.119 69.2683C147.912 70.2473 147.7 71.2592 147.482 72.3039C147.264 73.3486 147.009 74.5053 146.718 75.7739C146.386 77.2724 146.066 78.7052 145.757 80.0724C145.449 81.4396 145.127 82.686 144.794 83.8118C144.466 84.9048 144.134 85.8278 143.798 86.581C143.495 87.3399 143.183 87.8603 142.863 88.1422L146.9 88.8545ZM162.16 76.1115C162.582 76.0168 163.002 75.9386 163.419 75.8767C163.798 75.842 164.206 75.8294 164.645 75.839C165.121 75.8216 165.573 75.8505 166 75.9258C166.394 75.9953 166.828 76.1227 167.304 76.308C167.779 76.4934 168.203 76.7714 168.578 77.1421C168.953 77.5128 169.239 78.0033 169.436 78.6135C169.639 79.1908 169.665 79.9062 169.514 80.7598L167.504 91.8795C167.243 93.3568 166.562 94.4382 165.459 95.1237C164.357 95.8093 162.821 95.9784 160.851 95.631L153.859 94.3976L159.935 59.9289L164.859 60.7975L162.16 76.1115ZM159.591 90.6868C160.703 91.2892 161.51 91.4146 162.012 91.0631C162.547 90.7174 162.912 89.9865 163.109 88.8704L164.402 81.5335C164.443 81.3037 164.453 81.0517 164.434 80.7775C164.421 80.4705 164.316 80.1982 164.121 79.9607C163.965 79.6962 163.676 79.5099 163.255 79.4018C162.873 79.2666 162.317 79.2532 161.587 79.3614L159.591 90.6868ZM175.226 62.6263L180.642 63.5817L175.567 89.4941L171.136 88.7123L175.226 62.6263ZM169.594 97.1731L170.601 91.4612L175.18 92.2689L174.173 97.9809L169.594 97.1731Z" fill="black"/>
</svg>
