<svg width="223" height="107" viewBox="0 0 223 107" fill="none" xmlns="http://www.w3.org/2000/svg">
<ellipse cx="111.5" cy="53.2068" rx="111.5" ry="53.0205" fill="#F900F8"/>
<path d="M53.5 51.0482H54.9L56 35.1982H61.5L58.4 52.4482L61.5 70.1982H56L54.4 53.5982H53.5V51.0482ZM48.5 35.1982H53.5V70.1982H48.5V35.1982ZM63.4902 35.1982H68.4902V70.2482H63.4902V35.1982ZM63.4902 35.1982H67.9902V70.2482H63.4902V35.1982ZM79.548 35.1982H84.548V70.1982H79.548V35.1982ZM71.498 35.1982H76.498V70.1982H71.498V35.1982ZM82.998 61.1982H73.498V56.0982H82.998V61.1982ZM87.5625 35.1982H92.5625V70.1982H87.5625V35.1982ZM97.9625 40.2982L88.4625 38.4982L88.0625 35.1982H99.5625L97.9625 40.2982ZM96.9625 54.3482H88.9125V49.2482H96.9625V54.3482ZM88.0625 70.1982L88.4625 66.8982L97.9625 65.0982L99.5625 70.1982H88.0625ZM108.507 60.1482H113.307V63.4982C113.307 64.8982 113.157 66.0649 112.857 66.9982C112.59 67.8982 112.19 68.6149 111.657 69.1482C111.123 69.6482 110.457 69.9982 109.657 70.1982C108.89 70.3982 108.007 70.4982 107.007 70.4982C106.007 70.4982 105.09 70.4149 104.257 70.2482C103.423 70.0816 102.707 69.7482 102.107 69.2482C101.54 68.7482 101.09 68.0482 100.757 67.1482C100.457 66.2149 100.307 65.0149 100.307 63.5482V41.1482C100.307 38.9482 100.873 37.3316 102.007 36.2982C103.173 35.2316 104.773 34.6982 106.807 34.6982C108.84 34.6982 110.423 35.2316 111.557 36.2982C112.723 37.3316 113.307 38.9482 113.307 41.1482V47.0482H108.507V42.3482C108.507 41.4816 108.407 40.7482 108.207 40.1482C108.04 39.5149 107.573 39.1982 106.807 39.1982C106.04 39.1982 105.557 39.5149 105.357 40.1482C105.19 40.7816 105.107 41.5149 105.107 42.3482V62.3482C105.107 63.4149 105.207 64.2982 105.407 64.9982C105.607 65.6982 106.09 66.0482 106.857 66.0482C107.623 66.0482 108.09 65.6982 108.257 64.9982C108.423 64.2982 108.507 63.4149 108.507 62.3482V60.1482ZM120.785 51.0482H122.185L123.285 35.1982H128.785L125.685 52.4482L128.785 70.1982H123.285L121.685 53.5982H120.785V51.0482ZM115.785 35.1982H120.785V70.1982H115.785V35.1982ZM143.142 63.4982C143.142 64.9982 142.975 66.2149 142.642 67.1482C142.342 68.0482 141.908 68.7482 141.342 69.2482C140.775 69.7482 140.092 70.0816 139.292 70.2482C138.525 70.4149 137.658 70.4982 136.692 70.4982C135.692 70.4982 134.775 70.4149 133.942 70.2482C133.142 70.0816 132.442 69.7482 131.842 69.2482C131.275 68.7482 130.842 68.0482 130.542 67.1482C130.242 66.2149 130.092 64.9982 130.092 63.4982V41.1982C130.092 38.9982 130.675 37.3649 131.842 36.2982C133.008 35.1982 134.608 34.6482 136.642 34.6482C138.675 34.6482 140.258 35.1982 141.392 36.2982C142.525 37.3649 143.092 38.9982 143.092 41.1982L143.142 63.4982ZM136.642 39.1482C135.908 39.1482 135.442 39.4816 135.242 40.1482C135.042 40.8149 134.942 41.5649 134.942 42.3982V62.3482C134.942 63.4149 135.025 64.2982 135.192 64.9982C135.392 65.6982 135.875 66.0482 136.642 66.0482C137.408 66.0482 137.875 65.6982 138.042 64.9982C138.208 64.2982 138.292 63.4149 138.292 62.3482V42.3982C138.292 41.9982 138.275 41.5982 138.242 41.1982C138.208 40.7982 138.125 40.4482 137.992 40.1482C137.892 39.8482 137.725 39.6149 137.492 39.4482C137.292 39.2482 137.008 39.1482 136.642 39.1482ZM162.256 41.3982C162.256 41.1982 162.223 40.9649 162.156 40.6982C162.09 40.3982 161.94 40.1482 161.706 39.9482C161.506 39.7149 161.19 39.5816 160.756 39.5482C160.356 39.4816 159.806 39.5649 159.106 39.7982V62.3982C159.806 62.6316 160.356 62.7316 160.756 62.6982C161.19 62.6316 161.506 62.4982 161.706 62.2982C161.94 62.0649 162.09 61.8149 162.156 61.5482C162.223 61.2482 162.256 60.9982 162.256 60.7982V41.3982ZM154.156 39.7982C153.456 39.5649 152.89 39.4816 152.456 39.5482C152.056 39.5816 151.756 39.7149 151.556 39.9482C151.356 40.1482 151.223 40.3982 151.156 40.6982C151.09 40.9649 151.056 41.1982 151.056 41.3982V60.7982C151.056 60.9982 151.09 61.2482 151.156 61.5482C151.223 61.8149 151.356 62.0649 151.556 62.2982C151.756 62.4982 152.056 62.6316 152.456 62.6982C152.89 62.7316 153.456 62.6316 154.156 62.3982V39.7982ZM162.706 35.1482C163.473 35.0482 164.123 35.0982 164.656 35.2982C165.223 35.4649 165.673 35.7482 166.006 36.1482C166.373 36.5149 166.64 36.9816 166.806 37.5482C167.006 38.0816 167.106 38.6649 167.106 39.2982V62.5982C167.073 64.0316 166.64 65.1649 165.806 65.9982C165.006 66.7982 163.973 67.1482 162.706 67.0482C162.04 66.9816 161.49 66.7649 161.056 66.3982C160.623 65.9982 160.29 65.5649 160.056 65.0982C159.79 64.5982 159.59 64.0149 159.456 63.3482H159.106V70.1982H154.156V63.3482H153.906C153.773 64.0149 153.573 64.5982 153.306 65.0982C153.073 65.5649 152.74 65.9982 152.306 66.3982C151.906 66.7649 151.356 66.9816 150.656 67.0482C149.356 67.1482 148.29 66.7982 147.456 65.9982C146.623 65.1982 146.19 64.0982 146.156 62.6982V39.2982C146.19 38.0316 146.573 36.9816 147.306 36.1482C148.04 35.3149 149.156 34.9816 150.656 35.1482C151.423 35.2149 152.006 35.4482 152.406 35.8482C152.84 36.2482 153.173 36.6816 153.406 37.1482C153.64 37.6482 153.806 38.2149 153.906 38.8482H154.156V32.6982H159.106V38.8482H159.456C159.523 38.2482 159.673 37.6816 159.906 37.1482C160.14 36.7149 160.473 36.2982 160.906 35.8982C161.34 35.4982 161.94 35.2482 162.706 35.1482ZM170.082 35.1982H175.082V70.2482H170.082V35.1982ZM170.082 35.1982H174.582V70.2482H170.082V35.1982Z" fill="black"/>
</svg>
