<svg width="352" height="226" viewBox="0 0 352 226" fill="none" xmlns="http://www.w3.org/2000/svg">
<ellipse cx="165.007" cy="60.0205" rx="165.007" ry="60.0205" transform="matrix(0.93965 -0.342137 0.341903 0.939735 0 113.193)" fill="#41FAF9"/>
<path d="M71.1168 141.458C71.5385 142.617 72.0968 143.567 72.7918 144.307C73.4754 145.016 74.2244 145.612 75.0389 146.096C75.8848 146.568 76.7506 146.998 77.6362 147.385C78.5219 147.772 79.3777 148.223 80.2037 148.738C81.0495 149.211 81.8256 149.833 82.532 150.604C83.2269 151.345 83.8024 152.341 84.2582 153.594L85.8139 157.87C86.19 158.904 86.3368 159.843 86.2544 160.689C86.172 161.535 85.913 162.286 85.4775 162.941C85.0419 163.596 84.4511 164.166 83.7051 164.651C83.0019 165.155 82.1747 165.563 81.2237 165.873C79.333 166.526 77.707 166.64 76.3458 166.213C74.9845 165.786 73.9278 164.539 73.1756 162.472L71.3977 157.585L75.861 155.96L77.0577 159.249C77.2059 159.656 77.364 160.042 77.5321 160.407C77.6887 160.74 77.8654 161.03 78.0619 161.278C78.2897 161.514 78.5418 161.671 78.818 161.748C79.0943 161.824 79.4046 161.8 79.7492 161.675C80.0937 161.549 80.3471 161.368 80.5094 161.132C80.6603 160.864 80.7314 160.572 80.7228 160.256C80.7455 159.928 80.7098 159.587 80.6158 159.231C80.5104 158.843 80.3893 158.462 80.2525 158.086L79.7396 156.676C79.3066 155.486 78.7596 154.568 78.0989 153.921C77.458 153.232 76.7574 152.671 75.997 152.239C75.2252 151.775 74.4235 151.375 73.5919 151.039C72.7803 150.661 71.9714 150.193 71.1654 149.635C70.3481 149.046 69.5634 148.302 68.8114 147.406C68.0908 146.497 67.4513 145.276 66.8928 143.741L65.4397 139.747C64.6876 137.68 64.7057 136.023 65.4943 134.778C66.2714 133.502 67.611 132.553 69.5131 131.932C71.4038 131.279 73.0298 131.166 74.3911 131.592C75.7836 132.008 76.856 133.249 77.6082 135.316L79.6254 140.861L75.1151 142.503L73.6791 138.556C73.3828 137.742 73.0381 137.087 72.645 136.591C72.2719 136.053 71.7251 135.915 71.0047 136.178C70.2843 136.44 69.9384 136.903 69.967 137.566C70.027 138.219 70.1994 138.936 70.4843 139.719L71.1168 141.458ZM89.336 146.371L94.4816 160.514L89.7834 162.225L77.8168 129.334L84.4883 126.905C86.3676 126.22 87.9096 126.12 89.1142 126.604C90.3189 127.088 91.1776 128.034 91.6905 129.444L95.7719 140.516C96.0682 141.33 96.1723 142.055 96.0842 142.69C95.9846 143.294 95.7825 143.811 95.4779 144.241C95.1733 144.671 94.8032 145.019 94.3675 145.284C93.9319 145.549 93.5262 145.75 93.1503 145.887C92.7431 146.035 92.3089 146.158 91.8476 146.255C91.4062 146.309 90.9905 146.336 90.6003 146.336C90.1903 146.379 89.7688 146.391 89.336 146.371ZM84.1049 131.993L88.0368 142.8C88.7743 142.78 89.3253 142.686 89.6898 142.517C90.0742 142.306 90.3261 142.073 90.4457 141.816C90.5851 141.517 90.6406 141.231 90.6121 140.958C90.5722 140.653 90.5123 140.391 90.4325 140.172L87.8853 133.171C87.4979 132.106 87.0108 131.449 86.4241 131.202C85.8688 130.943 85.0957 131.207 84.1049 131.993ZM92.9117 123.838L97.61 122.127L109.577 155.018L104.878 156.728L92.9117 123.838ZM104.428 125.072L94.8857 126.631L93.3816 123.667L104.188 119.732L104.428 125.072ZM108.292 138.618L100.728 141.372L98.984 136.579L106.548 133.825L108.292 138.618ZM105.348 156.557L104.596 153.319L112.907 148.378L116.154 152.623L105.348 156.557ZM121.673 139.918L126.183 138.276L127.329 141.424C127.807 142.739 128.065 143.887 128.102 144.867C128.16 145.804 128.029 146.614 127.71 147.298C127.38 147.95 126.873 148.507 126.19 148.969C125.538 149.419 124.742 149.815 123.802 150.157C122.863 150.499 121.973 150.735 121.133 150.863C120.293 150.992 119.505 150.924 118.771 150.659C118.067 150.383 117.405 149.879 116.784 149.148C116.183 148.373 115.632 147.297 115.13 145.918L107.472 124.868C106.719 122.801 106.699 121.088 107.411 119.729C108.142 118.327 109.464 117.279 111.374 116.583C113.285 115.888 114.955 115.847 116.385 116.462C117.834 117.034 118.935 118.353 119.687 120.421L121.704 125.965L117.194 127.607L115.587 123.191C115.291 122.376 114.946 121.721 114.553 121.226C114.18 120.688 113.633 120.55 112.913 120.812C112.192 121.074 111.846 121.537 111.875 122.201C111.935 122.853 112.107 123.571 112.392 124.354L119.23 143.149C119.595 144.151 119.991 144.947 120.418 145.536C120.846 146.126 121.419 146.289 122.14 146.027C122.86 145.764 123.179 145.276 123.096 144.561C123.014 143.846 122.79 142.988 122.425 141.985L121.673 139.918ZM120.257 113.881L124.955 112.17L136.939 145.108L132.241 146.819L120.257 113.881ZM120.257 113.881L124.485 112.341L136.469 145.279L132.241 146.819L120.257 113.881ZM151.541 139.738L146.843 141.449L135.633 114.295L135.257 114.432L143.977 142.492L139.278 144.203L129.614 110.474L137.507 107.6L151.541 139.738ZM147.572 136.288L140.666 138.802L138.922 134.01L145.828 131.495L147.572 136.288ZM146.611 104.285L158.578 137.176L153.88 138.886L141.913 105.996L146.611 104.285ZM153.88 138.886L152.751 135.785L161.438 130.707L164.686 134.952L153.88 138.886ZM154.117 101.552L158.816 99.8413L170.799 132.779L166.101 134.49L154.117 101.552ZM154.117 101.552L158.346 100.012L170.33 132.95L166.101 134.49L154.117 101.552ZM173.91 99.7729L170.497 100.483L180.891 129.051L176.193 130.762L165.782 102.147L162.681 103.861L160.937 99.0688L172.166 94.9803L173.91 99.7729ZM188.521 113.822L181.589 91.5494L186.757 89.6677L192.844 112.248L188.521 113.822ZM185.266 112.772L189.965 111.061L194.666 123.983L189.967 125.693L185.266 112.772ZM173.79 94.3892L178.958 92.5074L187.958 114.027L183.635 115.601L173.79 94.3892ZM211.692 107.141L216.203 105.499L217.348 108.647C217.827 109.962 218.084 111.11 218.122 112.09C218.179 113.027 218.048 113.837 217.729 114.521C217.399 115.173 216.892 115.73 216.209 116.192C215.557 116.642 214.761 117.038 213.821 117.38C212.882 117.722 211.992 117.958 211.152 118.086C210.312 118.215 209.524 118.147 208.79 117.882C208.086 117.606 207.424 117.102 206.803 116.371C206.202 115.596 205.651 114.52 205.15 113.141L197.491 92.0914C196.739 90.024 196.718 88.3109 197.43 86.952C198.162 85.5505 199.483 84.5019 201.393 83.8062C203.304 83.1105 204.974 83.07 206.404 83.6846C207.853 84.2565 208.954 85.5762 209.706 87.6436L211.724 93.188L207.213 94.8303L205.606 90.4135C205.31 89.5991 204.965 88.9442 204.572 88.4488C204.199 87.9106 203.652 87.7727 202.932 88.035C202.212 88.2973 201.866 88.7603 201.894 89.4239C201.954 90.076 202.127 90.7937 202.411 91.5768L209.25 110.372C209.614 111.374 210.01 112.17 210.437 112.759C210.865 113.349 211.439 113.512 212.159 113.25C212.879 112.987 213.198 112.499 213.115 111.784C213.033 111.069 212.809 110.211 212.444 109.208L211.692 107.141ZM232.215 103.234C232.727 104.643 232.987 105.844 232.993 106.835C233.018 107.783 232.851 108.589 232.489 109.253C232.128 109.917 231.599 110.464 230.905 110.894C230.241 111.313 229.455 111.688 228.547 112.019C227.607 112.361 226.718 112.596 225.878 112.724C225.069 112.842 224.297 112.768 223.562 112.503C222.859 112.227 222.212 111.718 221.623 110.975C221.022 110.2 220.465 109.108 219.952 107.698L212.328 86.7424C211.575 84.6749 211.565 82.9405 212.297 81.5389C213.017 80.1061 214.332 79.0418 216.243 78.3461C218.154 77.6504 219.829 77.6256 221.27 78.2715C222.7 78.8861 223.791 80.2272 224.543 82.2946L232.215 103.234ZM217.781 82.5749C217.092 82.8258 216.768 83.2987 216.808 83.9936C216.848 84.6886 217.01 85.4276 217.295 86.2107L224.116 104.958C224.481 105.961 224.861 106.762 225.257 107.363C225.684 107.953 226.258 108.116 226.979 107.854C227.699 107.591 228.018 107.103 227.935 106.388C227.852 105.673 227.629 104.815 227.264 103.812L220.443 85.0645C220.295 84.6573 220.142 84.2871 219.986 83.9539C219.818 83.5895 219.62 83.2891 219.392 83.0528C219.195 82.8051 218.959 82.6428 218.683 82.566C218.426 82.4465 218.126 82.4495 217.781 82.5749ZM235.391 93.3502L233.836 89.0744L239.431 86.0262L241.636 92.0875L235.391 93.3502ZM225.371 75.6077L230.069 73.897L242.053 106.835L237.355 108.545L225.371 75.6077ZM238.861 76.1236L227.345 78.9862L225.841 75.4366L237.117 71.331L238.861 76.1236ZM249.018 88.3886L247.462 84.1128L253.057 81.0646L255.263 87.1259L249.018 88.3886ZM238.998 70.6461L243.696 68.9354L255.68 101.873L250.982 103.584L238.998 70.6461ZM252.487 71.162L240.972 74.0245L239.468 70.475L250.744 66.3693L252.487 71.162ZM252.625 65.6844L257.323 63.9737L269.29 96.8644L264.591 98.5751L252.625 65.6844ZM264.141 66.9188L254.599 68.4776L253.095 65.5133L263.901 61.5788L264.141 66.9188ZM268.005 80.4642L260.441 83.2184L258.697 78.4258L266.261 75.6716L268.005 80.4642ZM265.061 98.4041L264.309 95.1661L272.62 90.2243L275.867 94.4695L265.061 98.4041ZM265.793 60.8898L270.491 59.1791L282.458 92.0698L277.759 93.7805L265.793 60.8898ZM277.309 62.1242L267.767 63.683L266.262 60.7187L277.068 56.7842L277.309 62.1242ZM281.173 75.6696L273.609 78.4238L271.865 73.6312L279.429 70.877L281.173 75.6696ZM278.229 93.6095L277.477 90.3715L285.788 85.4297L289.035 89.6749L278.229 93.6095Z" fill="black"/>
</svg>
