<svg width="29" height="15" viewBox="0 0 29 15" fill="none" xmlns="http://www.w3.org/2000/svg">
<path fill-rule="evenodd" clip-rule="evenodd" d="M0 1.5C0 0.671573 0.671573 0 1.5 0H27.5C28.3284 0 29 0.671573 29 1.5C29 2.32843 28.3284 3 27.5 3H1.5C0.671573 3 0 2.32843 0 1.5ZM6 7.74002C6 6.91159 6.67157 6.24002 7.5 6.24002H27.5C28.3284 6.24002 29 6.91159 29 7.74002C29 8.56845 28.3284 9.24002 27.5 9.24002H7.5C6.67157 9.24002 6 8.56845 6 7.74002ZM1.5 12.0001C0.671573 12.0001 0 12.6716 0 13.5001C0 14.3285 0.671573 15.0001 1.5 15.0001H27.5C28.3284 15.0001 29 14.3285 29 13.5001C29 12.6716 28.3284 12.0001 27.5 12.0001H1.5Z" fill="black"/>
</svg>
