<svg width="305" height="300" viewBox="0 0 305 300" fill="none" xmlns="http://www.w3.org/2000/svg">
<path d="M302.707 61.7116L302.705 61.7236L302.703 61.7355L263.512 283.997C261.93 292.97 253.214 299.093 243.886 297.448L16.3818 257.333C7.15884 255.707 0.939 247.057 2.53956 237.98L41.7302 15.719C43.3111 6.75348 52.1422 0.642867 61.3567 2.26763L288.861 42.3827C298.211 44.0315 304.391 52.7971 302.707 61.7116ZM106.775 81.4138L106.775 81.4138C71.7727 104.025 45.0826 132.094 30.2524 159.266C15.4667 186.355 12.2437 213.052 25.2426 232.371C38.2192 251.732 64.4527 259.323 95.6164 256.649C126.877 253.966 163.649 240.944 198.591 218.322C233.592 195.712 260.277 167.673 275.104 140.517C289.889 113.438 293.109 86.743 280.122 67.3665L280.12 67.3633C267.132 48.0643 240.894 40.5044 209.732 43.1786C178.473 45.8611 141.706 58.8525 106.775 81.4138Z" stroke="#FEED01" stroke-width="4"/>
</svg>
