<svg width="190" height="188" viewBox="0 0 190 188" fill="none" xmlns="http://www.w3.org/2000/svg">
<path d="M131.487 1.04796L7.20951 46.2812C1.6 48.3229 -1.36669 54.509 0.631206 59.9981L44.6562 180.956C46.6779 186.51 52.903 189.277 58.5125 187.235L182.79 142.002C188.466 139.936 191.366 133.774 189.368 128.285L145.343 7.32728C143.412 1.8138 137.163 -1.01804 131.487 1.04796ZM136.327 114.289C114.727 156.34 78.7121 181.437 55.8954 170.279C33.1024 159.186 32.0725 116.046 53.7394 73.9701C75.3634 31.9838 111.378 6.88694 134.171 17.98C156.987 29.1385 157.994 72.2126 136.327 114.289Z" fill="#FEED01"/>
</svg>
