<svg width="61" height="61" viewBox="0 0 61 61" fill="none" xmlns="http://www.w3.org/2000/svg">
<g clip-path="url(#clip0_302_832)">
<path d="M53.9857 9.21045H7.31901C5.5509 9.21045 3.85521 9.91283 2.60497 11.1631C1.35472 12.4133 0.652344 14.109 0.652344 15.8771L0.652344 30.8771H60.6523V15.8771C60.6523 14.109 59.95 12.4133 58.6997 11.1631C57.4495 9.91283 55.7538 9.21045 53.9857 9.21045Z" fill="#005BBB"/>
<path d="M60.6523 45.877C60.6523 47.6451 59.95 49.3408 58.6997 50.591C57.4495 51.8412 55.7538 52.5436 53.9857 52.5436H7.31901C5.5509 52.5436 3.85521 51.8412 2.60497 50.591C1.35472 49.3408 0.652344 47.6451 0.652344 45.877V30.877H60.6523V45.877Z" fill="#FFD500"/>
</g>
<defs>
<clipPath id="clip0_302_832">
<rect width="60" height="60" fill="white" transform="translate(0.652344 0.876953)"/>
</clipPath>
</defs>
</svg>
