<svg width="61" height="61" viewBox="0 0 61 61" fill="none" xmlns="http://www.w3.org/2000/svg">
<g clip-path="url(#clip0_302_835)">
<mask id="mask0_302_835" style="mask-type:luminance" maskUnits="userSpaceOnUse" x="0" y="9" width="61" height="44">
<path d="M56.3666 9.44824H4.93806C2.57112 9.44824 0.652344 11.367 0.652344 13.734V48.0197C0.652344 50.3866 2.57112 52.3054 4.93806 52.3054H56.3666C58.7336 52.3054 60.6523 50.3866 60.6523 48.0197V13.734C60.6523 11.367 58.7336 9.44824 56.3666 9.44824Z" fill="white"/>
</mask>
<g mask="url(#mask0_302_835)">
<path d="M56.3666 9.44824H4.93806C2.57112 9.44824 0.652344 11.367 0.652344 13.734V48.0197C0.652344 50.3866 2.57112 52.3054 4.93806 52.3054H56.3666C58.7336 52.3054 60.6523 50.3866 60.6523 48.0197V13.734C60.6523 11.367 58.7336 9.44824 56.3666 9.44824Z" fill="white"/>
<mask id="mask1_302_835" style="mask-type:alpha" maskUnits="userSpaceOnUse" x="0" y="9" width="61" height="44">
<path d="M56.3666 9.44824H4.93806C2.57112 9.44824 0.652344 11.367 0.652344 13.734V48.0197C0.652344 50.3866 2.57112 52.3054 4.93806 52.3054H56.3666C58.7336 52.3054 60.6523 50.3866 60.6523 48.0197V13.734C60.6523 11.367 58.7336 9.44824 56.3666 9.44824Z" fill="white"/>
</mask>
<g mask="url(#mask1_302_835)">
<path fill-rule="evenodd" clip-rule="evenodd" d="M60.6523 9.44824H0.652344V12.3054H60.6523V9.44824ZM60.6523 15.1625H0.652344V18.0197H60.6523V15.1625ZM0.652344 20.8768H60.6523V23.734H0.652344V20.8768ZM60.6523 26.5911H0.652344V29.4482H60.6523V26.5911ZM0.652344 32.3055H60.6523V35.1625H0.652344V32.3055ZM60.6523 38.0196H0.652344V40.8769H60.6523V38.0196ZM0.652344 43.734H60.6523V46.591H0.652344V43.734ZM60.6523 49.4483H0.652344V52.3054H60.6523V49.4483Z" fill="#D02F44"/>
<path d="M26.3666 9.44824H0.652344V29.4482H26.3666V9.44824Z" fill="#46467F"/>
<g filter="url(#filter0_d_302_835)">
<path fill-rule="evenodd" clip-rule="evenodd" d="M6.36692 13.7337C6.36692 14.5227 5.72732 15.1623 4.93834 15.1623C4.14937 15.1623 3.50977 14.5227 3.50977 13.7337C3.50977 12.9448 4.14937 12.3052 4.93834 12.3052C5.72732 12.3052 6.36692 12.9448 6.36692 13.7337ZM12.0812 13.7337C12.0812 14.5227 11.4416 15.1623 10.6526 15.1623C9.86366 15.1623 9.22406 14.5227 9.22406 13.7337C9.22406 12.9448 9.86366 12.3052 10.6526 12.3052C11.4416 12.3052 12.0812 12.9448 12.0812 13.7337ZM16.3669 15.1623C17.1559 15.1623 17.7955 14.5227 17.7955 13.7337C17.7955 12.9448 17.1559 12.3052 16.3669 12.3052C15.5779 12.3052 14.9384 12.9448 14.9384 13.7337C14.9384 14.5227 15.5779 15.1623 16.3669 15.1623ZM23.5097 13.7337C23.5097 14.5227 22.8702 15.1623 22.0812 15.1623C21.2922 15.1623 20.6526 14.5227 20.6526 13.7337C20.6526 12.9448 21.2922 12.3052 22.0812 12.3052C22.8702 12.3052 23.5097 12.9448 23.5097 13.7337ZM7.79548 18.0194C8.58446 18.0194 9.22406 17.3799 9.22406 16.5909C9.22406 15.8019 8.58446 15.1623 7.79548 15.1623C7.0065 15.1623 6.36692 15.8019 6.36692 16.5909C6.36692 17.3799 7.0065 18.0194 7.79548 18.0194ZM14.9384 16.5909C14.9384 17.3799 14.2988 18.0194 13.5098 18.0194C12.7208 18.0194 12.0812 17.3799 12.0812 16.5909C12.0812 15.8019 12.7208 15.1623 13.5098 15.1623C14.2988 15.1623 14.9384 15.8019 14.9384 16.5909ZM19.2241 18.0194C20.013 18.0194 20.6526 17.3799 20.6526 16.5909C20.6526 15.8019 20.013 15.1623 19.2241 15.1623C18.4351 15.1623 17.7955 15.8019 17.7955 16.5909C17.7955 17.3799 18.4351 18.0194 19.2241 18.0194ZM23.5097 19.448C23.5097 20.237 22.8702 20.8766 22.0812 20.8766C21.2922 20.8766 20.6526 20.237 20.6526 19.448C20.6526 18.659 21.2922 18.0194 22.0812 18.0194C22.8702 18.0194 23.5097 18.659 23.5097 19.448ZM16.3669 20.8766C17.1559 20.8766 17.7955 20.237 17.7955 19.448C17.7955 18.659 17.1559 18.0194 16.3669 18.0194C15.5779 18.0194 14.9384 18.659 14.9384 19.448C14.9384 20.237 15.5779 20.8766 16.3669 20.8766ZM12.0812 19.448C12.0812 20.237 11.4416 20.8766 10.6526 20.8766C9.86366 20.8766 9.22406 20.237 9.22406 19.448C9.22406 18.659 9.86366 18.0194 10.6526 18.0194C11.4416 18.0194 12.0812 18.659 12.0812 19.448ZM4.93834 20.8766C5.72732 20.8766 6.36692 20.237 6.36692 19.448C6.36692 18.659 5.72732 18.0194 4.93834 18.0194C4.14937 18.0194 3.50977 18.659 3.50977 19.448C3.50977 20.237 4.14937 20.8766 4.93834 20.8766ZM9.22406 22.3052C9.22406 23.0942 8.58446 23.7337 7.79548 23.7337C7.0065 23.7337 6.36692 23.0942 6.36692 22.3052C6.36692 21.5162 7.0065 20.8766 7.79548 20.8766C8.58446 20.8766 9.22406 21.5162 9.22406 22.3052ZM13.5098 23.7337C14.2988 23.7337 14.9384 23.0942 14.9384 22.3052C14.9384 21.5162 14.2988 20.8766 13.5098 20.8766C12.7208 20.8766 12.0812 21.5162 12.0812 22.3052C12.0812 23.0942 12.7208 23.7337 13.5098 23.7337ZM20.6526 22.3052C20.6526 23.0942 20.013 23.7337 19.2241 23.7337C18.4351 23.7337 17.7955 23.0942 17.7955 22.3052C17.7955 21.5162 18.4351 20.8766 19.2241 20.8766C20.013 20.8766 20.6526 21.5162 20.6526 22.3052ZM22.0812 26.5909C22.8702 26.5909 23.5097 25.9513 23.5097 25.1623C23.5097 24.3733 22.8702 23.7337 22.0812 23.7337C21.2922 23.7337 20.6526 24.3733 20.6526 25.1623C20.6526 25.9513 21.2922 26.5909 22.0812 26.5909ZM17.7955 25.1623C17.7955 25.9513 17.1559 26.5909 16.3669 26.5909C15.5779 26.5909 14.9384 25.9513 14.9384 25.1623C14.9384 24.3733 15.5779 23.7337 16.3669 23.7337C17.1559 23.7337 17.7955 24.3733 17.7955 25.1623ZM10.6526 26.5909C11.4416 26.5909 12.0812 25.9513 12.0812 25.1623C12.0812 24.3733 11.4416 23.7337 10.6526 23.7337C9.86366 23.7337 9.22406 24.3733 9.22406 25.1623C9.22406 25.9513 9.86366 26.5909 10.6526 26.5909ZM6.36692 25.1623C6.36692 25.9513 5.72732 26.5909 4.93834 26.5909C4.14937 26.5909 3.50977 25.9513 3.50977 25.1623C3.50977 24.3733 4.14937 23.7337 4.93834 23.7337C5.72732 23.7337 6.36692 24.3733 6.36692 25.1623Z" fill="url(#paint0_linear_302_835)"/>
</g>
</g>
</g>
</g>
<defs>
<filter id="filter0_d_302_835" x="3.50977" y="12.3052" width="20" height="16.4285" filterUnits="userSpaceOnUse" color-interpolation-filters="sRGB">
<feFlood flood-opacity="0" result="BackgroundImageFix"/>
<feColorMatrix in="SourceAlpha" type="matrix" values="0 0 0 0 0 0 0 0 0 0 0 0 0 0 0 0 0 0 127 0" result="hardAlpha"/>
<feOffset dy="2.14286"/>
<feColorMatrix type="matrix" values="0 0 0 0 0 0 0 0 0 0 0 0 0 0 0 0 0 0 0.06 0"/>
<feBlend mode="normal" in2="BackgroundImageFix" result="effect1_dropShadow_302_835"/>
<feBlend mode="normal" in="SourceGraphic" in2="effect1_dropShadow_302_835" result="shape"/>
</filter>
<linearGradient id="paint0_linear_302_835" x1="3.50977" y1="12.3052" x2="3.50977" y2="26.5909" gradientUnits="userSpaceOnUse">
<stop stop-color="white"/>
<stop offset="1" stop-color="#F0F0F0"/>
</linearGradient>
<clipPath id="clip0_302_835">
<rect width="60" height="60" fill="white" transform="translate(0.652344 0.876953)"/>
</clipPath>
</defs>
</svg>
